<?xml version="1.0" encoding="UTF-8"?>
<svg id="Layer_1" xmlns="http://www.w3.org/2000/svg" version="1.1" viewBox="-12 -12 1465 325">
  <!-- Generator: Adobe Illustrator 30.6.0, SVG Export Plug-In . SVG Version: 2.1.4 Build 109)  -->
  <!-- viewBox cortado para o conteúdo visível (o original tinha uma margem em branco enorme à direita/abaixo, além de um artefato minúsculo no canto que inflava a caixa) -->
  <defs>
    <style>
      .st0 {
        fill: #cf006f;
      }

      .st1 {
        fill: #873a4e;
      }
    </style>
  </defs>
  <g>
    <polygon class="st0" points="479.24 293.54 449.51 293.87 291.42 59.31 290.77 293.85 261.24 293.83 261.26 6.02 291.4 6.75 448.54 239.19 449.65 5.89 479.21 6 479.24 293.54"/>
    <path class="st0" d="M174.24,287.28C108.58,317.74,13.92,294.7,0,216.81l30.35-5.01c13.05,56,82.82,73.74,131.21,49.51,25.53-12.79,36.47-43.26,21.87-67.59-6.47-10.78-18.3-17.19-30.1-20.85l-91.07-28.23c-16.59-5.14-32.57-15.22-41.46-30.34C-2.01,75.5,16.19,27.66,57.54,10.24c29.29-12.34,62.24-13.41,92.97-3.87,36,11.17,61.47,40.83,67.77,77.97l-30.94,5.46c-3.12-19.31-12.92-36.47-30.01-47.5-28.15-18.17-65.81-19.21-93.82-1.2-19.62,12.62-27.89,37.12-15.58,56.65,7.03,11.16,19.44,17.21,31.78,20.95l81.7,24.8c34.44,10.45,57.68,32.42,58.61,69.36.81,32.05-15.09,60.16-45.79,74.4Z"/>
    <path class="st0" d="M697.96,224.49l-127.83-.42-24.3,69.87-30.75-.02L614.2,6.18l39.33-.16,99.14,287.6-30.87.13-23.83-69.25ZM688.12,196.24l-54.6-155.16-54.2,155.61,108.81-.45Z"/>
    <path class="st0" d="M912.15,183.94l-94.01.92-.03,109.02-29.47-.04-.02-288.03,124.58,1c33.45.27,60.17,22.07,71.29,52.72,7.76,23.13,7.93,47.13.39,70.19-11.03,31.74-38.01,52.22-72.72,54.22ZM952.67,127.16c10.07-21.17,9.6-43.83-.27-64.13-8.74-17.15-25.41-28.28-45.3-28.36l-88.97-.36v122.23s88.96-.5,88.96-.5c19.86-.11,36.48-11.03,45.58-28.87Z"/>
    <g>
      <polygon class="st0" points="1389.22 5.89 1293.02 173.17 1292.88 293.92 1263.25 293.91 1263.13 173.46 1166.42 5.89 1200.78 6.1 1277.96 139.37 1354.87 6.1 1389.22 5.89"/>
      <polygon class="st0" points="1200.5 265.69 1200.78 293.96 1034.27 293.97 1034.3 5.98 1063.78 5.99 1063.73 265.69 1200.5 265.69"/>
    </g>
  </g>
  <rect class="st0" x="1406.39" y="261.77" width="34.41" height="34.29" transform="translate(1144.0504 1702.3932) rotate(-89.9746)"/>
</svg>
